<svg width="91" height="91" viewBox="0 0 91 91" fill="none" xmlns="http://www.w3.org/2000/svg">
<path d="M0 10.6667V-16H26.6667V-5.33333H10.6667V10.6667H0ZM0 90.6667V64H10.6667V80H26.6667V90.6667H0ZM80 90.6667V80H96V64H106.667V90.6667H80ZM96 10.6667V-5.33333H80V-16H106.667V10.6667H96ZM82.6667 66.6667H90.6667V74.6667H82.6667V66.6667ZM82.6667 50.6667H90.6667V58.6667H82.6667V50.6667ZM74.6667 58.6667H82.6667V66.6667H74.6667V58.6667ZM66.6667 66.6667H74.6667V74.6667H66.6667V66.6667ZM58.6667 58.6667H66.6667V66.6667H58.6667V58.6667ZM74.6667 42.6667H82.6667V50.6667H74.6667V42.6667ZM66.6667 50.6667H74.6667V58.6667H66.6667V50.6667ZM58.6667 42.6667H66.6667V50.6667H58.6667V42.6667ZM90.6667 0V32H58.6667V0H90.6667ZM48 42.6667V74.6667H16V42.6667H48ZM48 0V32H16V0H48ZM40 66.6667V50.6667H24V66.6667H40ZM40 24V8H24V24H40ZM82.6667 24V8H66.6667V24H82.6667Z" fill="white"/>
</svg>
